<?xml version="1.0" encoding="UTF-8" standalone="no"?>
<!DOCTYPE svg PUBLIC "-//W3C//DTD SVG 1.1//EN"
 "http://www.w3.org/Graphics/SVG/1.1/DTD/svg11.dtd">
<!-- Generated by graphviz version 2.26.3 (20100126.1600)
 -->
<!-- Title: _anonymous_0 Pages: 1 -->
<svg width="430px" height="132px"
 viewBox="0.00 0.00 430.00 132.39" xmlns="http://www.w3.org/2000/svg" xmlns:xlink="http://www.w3.org/1999/xlink">
<g id="graph1" class="graph" transform="scale(1 1) rotate(0) translate(4 128.389)">
<title>_anonymous_0</title>
<g id="graph2" class="cluster"><title>cluster_x</title>
<polygon fill="none" stroke="none" points="8,-9.3887 8,-115.389 78,-115.389 78,-9.3887 8,-9.3887"/>
</g>
<!-- D -->
<g id="node2" class="node"><title>D</title>
<ellipse fill="none" stroke="black" cx="43" cy="-89.3887" rx="27" ry="18"/>
<text text-anchor="middle" x="43" y="-84.7887" font-family="Arial" font-size="14.00">D</text>
</g>
<!-- R -->
<g id="node5" class="node"><title>R</title>
<ellipse fill="none" stroke="black" cx="267" cy="-62.3887" rx="27" ry="18"/>
<text text-anchor="middle" x="267" y="-57.7887" font-family="Arial" font-size="14.00">R</text>
</g>
<!-- D&#45;&gt;R -->
<g id="edge3" class="edge"><title>D&#45;&gt;R</title>
<path fill="none" stroke="black" d="M77.688,-99.1393C114.614,-107.752 174.193,-116.519 222,-99.3887 233.997,-95.0899 245.086,-86.0595 253.254,-77.9966"/>
<polygon fill="black" stroke="black" points="78.4485,-95.7221 67.9023,-96.736 76.7789,-102.52 78.4485,-95.7221"/>
<text text-anchor="middle" x="155" y="-111.789" font-family="Arial" font-size="14.00">uninterruptable sleep</text>
</g>
<!-- S -->
<g id="node3" class="node"><title>S</title>
<ellipse fill="none" stroke="black" cx="43" cy="-35.3887" rx="27" ry="18"/>
<text text-anchor="middle" x="43" y="-30.7887" font-family="Arial" font-size="14.00">S</text>
</g>
<!-- S&#45;&gt;R -->
<g id="edge13" class="edge"><title>S&#45;&gt;R</title>
<path fill="none" stroke="black" d="M63.3887,-23.5785C70.8757,-19.8687 79.5833,-16.2559 88,-14.3887 146.142,-1.48995 167.352,9.28637 222,-14.3887 233.235,-19.256 242.95,-28.4623 250.45,-37.5208"/>
<polygon fill="black" stroke="black" points="247.833,-39.8606 256.693,-45.6697 253.39,-35.6031 247.833,-39.8606"/>
<text text-anchor="middle" x="155" y="-17.7887" font-family="Arial" font-size="14.00">woken / signal</text>
</g>
<!-- R&#45;&gt;D -->
<g id="edge5" class="edge"><title>R&#45;&gt;D</title>
<path fill="none" stroke="black" d="M229.708,-64.0832C193.355,-66.12 136.604,-70.3231 88,-78.3887 81.4941,-79.4683 74.539,-80.9849 68.0901,-82.5478"/>
<polygon fill="black" stroke="black" points="230.051,-67.57 239.85,-63.5417 229.678,-60.5799 230.051,-67.57"/>
<text text-anchor="middle" x="155" y="-81.7887" font-family="Arial" font-size="14.00">woken</text>
</g>
<!-- R&#45;&gt;S -->
<g id="edge11" class="edge"><title>R&#45;&gt;S</title>
<path fill="none" stroke="black" d="M244.513,-52.3555C237.443,-49.622 229.517,-46.9791 222,-45.3887 173.776,-35.1854 116.715,-33.7792 80.2052,-34.1906"/>
<polygon fill="black" stroke="black" points="79.9631,-30.694 70.0223,-34.3588 80.0788,-37.6931 79.9631,-30.694"/>
<text text-anchor="middle" x="155" y="-48.7887" font-family="Arial" font-size="14.00">interruptable sleep</text>
</g>
<!-- T -->
<g id="node8" class="node"><title>T</title>
<ellipse fill="none" stroke="black" cx="395" cy="-89.3887" rx="27" ry="18"/>
<text text-anchor="middle" x="395" y="-84.7887" font-family="Arial" font-size="14.00">T</text>
</g>
<!-- R&#45;&gt;T -->
<g id="edge7" class="edge"><title>R&#45;&gt;T</title>
<path fill="none" stroke="black" d="M302.789,-69.9379C320.413,-73.6555 341.605,-78.1257 359.227,-81.8428"/>
<polygon fill="black" stroke="black" points="303.41,-66.492 292.903,-67.8526 301.965,-73.3412 303.41,-66.492"/>
<polygon fill="black" stroke="black" points="358.629,-85.2936 369.136,-83.933 360.074,-78.4443 358.629,-85.2936"/>
<text text-anchor="middle" x="331" y="-83.7887" font-family="Arial" font-size="14.00">signal</text>
</g>
<!-- Z -->
<g id="node10" class="node"><title>Z</title>
<ellipse fill="none" stroke="black" cx="395" cy="-35.3887" rx="27" ry="18"/>
<text text-anchor="middle" x="395" y="-30.7887" font-family="Arial" font-size="14.00">Z</text>
</g>
<!-- R&#45;&gt;Z -->
<g id="edge9" class="edge"><title>R&#45;&gt;Z</title>
<path fill="none" stroke="black" d="M292.685,-56.6036C298.996,-55.2034 305.739,-53.7255 312,-52.3887 327.279,-49.1265 344.168,-45.6447 358.701,-42.6872"/>
<polygon fill="black" stroke="black" points="359.705,-46.0549 368.809,-40.637 358.313,-39.1946 359.705,-46.0549"/>
<text text-anchor="middle" x="331" y="-55.7887" font-family="Arial" font-size="14.00">exit</text>
</g>
</g>
</svg>
